HIERARCHY
ROOT Hips
{
	OFFSET 0.000000 0.000000 0.000000
	CHANNELS 6 Xposition Yposition Zposition Zrotation Yrotation Xrotation 
	JOINT LHipJoint
	{
		OFFSET 0.000000 0.000000 0.000000
		CHANNELS 3 Zrotation Yrotation Xrotation
		JOINT LeftUpLeg
		{
			OFFSET 1.363060 -1.794630 0.839290
			CHANNELS 3 Zrotation Yrotation Xrotation
			JOINT LeftLeg
			{
				OFFSET 2.448110 -6.726130 0.000000
				CHANNELS 3 Zrotation Yrotation Xrotation
				JOINT LeftFoot
				{
					OFFSET 2.562200 -7.039590 0.000000
					CHANNELS 3 Zrotation Yrotation Xrotation
					JOINT LeftToeBase
					{
						OFFSET 0.157640 -0.433110 2.322550
						CHANNELS 3 Zrotation Yrotation Xrotation
						End Site
						{
							OFFSET 0.000000 0.000000 0.000000
						}
					}
				}
			}
		}
	}
	JOINT RHipJoint
	{
		OFFSET 0.000000 0.000000 0.000000
		CHANNELS 3 Zrotation Yrotation Xrotation
		JOINT RightUpLeg
		{
			OFFSET -1.305520 -1.794630 0.839290
			CHANNELS 3 Zrotation Yrotation Xrotation
			JOINT RightLeg
			{
				OFFSET -2.542530 -6.985550 0.000000
				CHANNELS 3 Zrotation Yrotation Xrotation
				JOINT RightFoot
				{
					OFFSET -2.568260 -7.056230 0.000000
					CHANNELS 3 Zrotation Yrotation Xrotation
					JOINT RightToeBase
					{
						OFFSET -0.164730 -0.452590 2.363150
						CHANNELS 3 Zrotation Yrotation Xrotation
						End Site
						{
							OFFSET 0.000000 0.000000 0.000000
						}
					}
				}
			}
		}
	}
	JOINT LowerBack
	{
		OFFSET 0.000000 0.000000 0.000000
		CHANNELS 3 Zrotation Yrotation Xrotation
		JOINT Spine
		{
			OFFSET 0.028270 2.035590 -0.193380
			CHANNELS 3 Zrotation Yrotation Xrotation
			JOINT Spine1
			{
				OFFSET 0.056720 2.048850 -0.042750
				CHANNELS 3 Zrotation Yrotation Xrotation
				JOINT Neck
				{
					OFFSET 0.000000 0.000000 0.000000
					CHANNELS 3 Zrotation Yrotation Xrotation
					JOINT Neck1
					{
						OFFSET -0.054170 1.746240 0.172020
						CHANNELS 3 Zrotation Yrotation Xrotation
						JOINT Head
						{
							OFFSET 0.104070 1.761360 -0.123970
							CHANNELS 3 Zrotation Yrotation Xrotation
							End Site
							{
								OFFSET 0.000000 0.000000 0.000000
							}
						}
					}
				}
				JOINT LeftShoulder
				{
					OFFSET 0.000000 0.000000 0.000000
					CHANNELS 3 Zrotation Yrotation Xrotation
					JOINT LeftArm
					{
						OFFSET 3.362410 1.200890 -0.311210
						CHANNELS 3 Zrotation Yrotation Xrotation
						JOINT LeftForeArm
						{
							OFFSET 4.983000 -0.000000 -0.000000
							CHANNELS 3 Zrotation Yrotation Xrotation
							JOINT LeftHand
							{
								OFFSET 3.483560 -0.000000 -0.000000
								CHANNELS 3 Zrotation Yrotation Xrotation
								JOINT LeftFingerBase
								{
									OFFSET 0.000000 0.000000 0.000000
									CHANNELS 3 Zrotation Yrotation Xrotation
									JOINT LeftHandIndex1
									{
										OFFSET 0.715260 -0.000000 -0.000000
										CHANNELS 3 Zrotation Yrotation Xrotation
										End Site
										{
											OFFSET 0.000000 0.000000 0.000000
										}
									}
								}
								JOINT LThumb
								{
									OFFSET 0.000000 0.000000 0.000000
									CHANNELS 3 Zrotation Yrotation Xrotation
									End Site
									{
										OFFSET 0.000000 0.000000 0.000000
									}
								}
							}
						}
					}
				}
				JOINT RightShoulder
				{
					OFFSET 0.000000 0.000000 0.000000
					CHANNELS 3 Zrotation Yrotation Xrotation
					JOINT RightArm
					{
						OFFSET -3.136600 1.374050 -0.404650
						CHANNELS 3 Zrotation Yrotation Xrotation
						JOINT RightForeArm
						{
							OFFSET -5.241900 -0.000000 -0.000000
							CHANNELS 3 Zrotation Yrotation Xrotation
							JOINT RightHand
							{
								OFFSET -3.444170 -0.000000 -0.000000
								CHANNELS 3 Zrotation Yrotation Xrotation
								JOINT RightFingerBase
								{
									OFFSET 0.000000 0.000000 0.000000
									CHANNELS 3 Zrotation Yrotation Xrotation
									JOINT RightHandIndex1
									{
										OFFSET -0.622530 -0.000000 -0.000000
										CHANNELS 3 Zrotation Yrotation Xrotation
										End Site
										{
											OFFSET 0.000000 0.000000 0.000000
										}
									}
								}
								JOINT RThumb
								{
									OFFSET 0.000000 0.000000 0.000000
									CHANNELS 3 Zrotation Yrotation Xrotation
									End Site
									{
										OFFSET 0.000000 0.000000 0.000000
									}
								}
							}
						}
					}
				}
			}
		}
	}
}
MOTION
Frames: 8
Frame Time: 0.008333
0.491288 17.813335 -13.969422 -2.158247 -1.045482 6.753827 -1.510373 0.140860 0.981713 -14.963705 4.649548 -13.969741 -0.544055 5.368244 14.865860 0.112013 1.153367 -0.146107 0.203300 -2.903500 -8.010300 -0.581998 -0.442625 -0.107716 19.969706 0.588935 -11.620586 -0.113680 -6.188617 17.589829 -0.292297 0.027309 -4.618336 -0.180600 -2.737200 7.547900 1.920026 -0.427367 -1.120478 1.448187 -0.598977 -1.511031 0.778544 -0.641059 9.097149 -4.084363 -0.488385 -12.220267 2.986298 0.299872 26.877888 0.753700 0.474400 10.705200 9.202207 5.483241 0.405784 -98.446700 -10.531499 37.512849 7.831368 -17.349878 -1.229851 -0.106181 -0.706494 -3.682072 24.875773 -4.342551 -1.664300 -7.125000 0.000000 0.000000 -1.205200 26.043400 0.553800 -8.418124 -4.569967 0.054916 95.906342 10.688160 19.287676 -9.598087 21.082813 -2.028715 0.720582 0.881883 32.137027 -21.313789 -23.554678 9.344000 7.125000 0.000000 0.000000 8.778000 -56.108700 -2.404900 
0.489362 17.812625 -13.970537 -2.176586 -1.016003 6.747478 -1.509514 0.141781 0.981370 -14.930614 4.618153 -13.964796 -0.543489 5.371110 14.873310 0.111068 1.158542 -0.156548 0.200100 -2.880100 -7.945200 -0.582729 -0.442209 -0.108070 19.997994 0.609240 -11.606818 -0.114629 -6.191550 17.598198 -0.287599 -0.004597 -4.641619 -0.184000 -2.762700 7.618800 1.935553 -0.437919 -1.120807 1.450196 -0.613206 -1.510253 0.766031 -0.647852 9.101615 -4.069361 -0.483684 -12.233538 2.974339 0.307980 26.865005 0.746100 0.478500 10.703400 9.200135 5.476600 0.407666 -98.636537 -10.813087 37.074203 7.533535 -16.801739 -1.130681 -0.122516 -0.699747 -3.228459 24.860718 -4.656129 -1.812900 -7.125000 0.000000 0.000000 -1.212500 25.690900 0.567100 -8.417680 -4.566031 0.054960 95.934545 10.709702 19.305351 -9.587219 21.064083 -2.023906 0.718395 0.884320 32.159137 -21.236463 -23.624342 9.330400 7.125000 0.000000 0.000000 8.894200 -56.164300 -2.449100 
0.488145 17.811915 -13.971247 -2.165638 -0.984119 6.741609 -1.508801 0.141530 0.981083 -14.935284 4.608952 -13.964251 -0.542612 5.375125 14.884862 0.115787 1.134630 -0.171413 0.201900 -2.893100 -7.981100 -0.582555 -0.442670 -0.107460 19.988712 0.568461 -11.619824 -0.116252 -6.194770 17.608424 -0.293299 0.029415 -4.640784 -0.190500 -2.810600 7.752000 1.926355 -0.442470 -1.115375 1.448738 -0.618513 -1.512309 0.763444 -0.650180 9.092019 -4.076460 -0.491463 -12.220388 2.984792 0.293094 26.811434 0.748000 0.471800 10.678300 9.200500 5.475654 0.408247 -98.692244 -10.795826 37.176789 7.544536 -16.819848 -1.134150 -0.117344 -0.701048 -3.316426 24.846448 -4.457519 -1.718600 -7.125000 0.000000 0.000000 -1.223900 25.911500 0.566200 -8.420073 -4.567562 0.054600 95.947540 10.688386 19.345527 -9.604890 21.092657 -2.031469 0.718812 0.881864 32.112678 -21.278011 -23.534419 9.319200 7.125000 0.000000 0.000000 8.807400 -56.079100 -2.406800 
0.486421 17.811509 -13.972768 -2.179682 -0.964870 6.734518 -1.507893 0.142183 0.981575 -14.911586 4.594902 -13.965220 -0.541651 5.378678 14.894793 0.116134 1.133393 -0.181957 0.200300 -2.881700 -7.949400 -0.582931 -0.442719 -0.106884 20.012363 0.556597 -11.624296 -0.117547 -6.198338 17.618491 -0.291166 0.016014 -4.648255 -0.184100 -2.763500 7.621100 1.932506 -0.442632 -1.100556 1.449182 -0.618365 -1.516744 0.756934 -0.649628 9.071773 -4.021608 -0.477896 -12.233820 2.952022 0.312268 26.828186 0.724800 0.483400 10.692600 9.204713 5.478061 0.407241 -98.741040 -10.734421 37.272299 7.583205 -16.885948 -1.146327 -0.116828 -0.701204 -3.366595 24.839946 -4.492070 -1.734100 -7.125000 0.000000 0.000000 -1.229300 25.873700 0.569700 -8.418504 -4.566142 0.052894 95.964971 10.671483 19.387052 -9.611386 21.101323 -2.033236 0.717878 0.883157 32.095812 -21.256748 -23.578520 9.324200 7.125000 0.000000 0.000000 8.850500 -56.120300 -2.427500 
0.484900 17.811002 -13.973883 -2.186445 -0.943005 6.725796 -1.507135 0.142806 0.981866 -14.895994 4.580938 -13.961437 -0.540791 5.381389 14.902863 0.116888 1.129853 -0.193326 0.200000 -2.879500 -7.943400 -0.583368 -0.442888 -0.106615 20.026015 0.539745 -11.628746 -0.119294 -6.202823 17.631632 -0.291798 0.018638 -4.656046 -0.183300 -2.757400 7.604000 1.932673 -0.444962 -1.090700 1.449496 -0.620965 -1.518915 0.754210 -0.650888 9.060250 -3.998780 -0.473572 -12.235228 2.937863 0.318012 26.818527 0.713900 0.487200 10.690700 9.206723 5.478209 0.407440 -98.811376 -10.730486 37.296824 7.571905 -16.861533 -1.142401 -0.117072 -0.700777 -3.361471 24.826396 -4.494223 -1.734300 -7.125000 0.000000 0.000000 -1.239300 25.871200 0.574500 -8.418290 -4.565599 0.052133 95.979622 10.659880 19.425532 -9.617545 21.110129 -2.035302 0.717418 0.883420 32.080447 -21.251074 -23.584892 9.323600 7.125000 0.000000 0.000000 8.859500 -56.125500 -2.431100 
0.483379 17.810394 -13.974999 -2.191506 -0.925237 6.716518 -1.506389 0.143322 0.982045 -14.883165 4.568082 -13.958463 -0.539688 5.385308 14.913700 0.116792 1.130749 -0.206542 0.200200 -2.880800 -7.947200 -0.583729 -0.443117 -0.106277 20.037329 0.519151 -11.633958 -0.120857 -6.206475 17.642443 -0.293099 0.026192 -4.659645 -0.182000 -2.748000 7.578000 1.928832 -0.445832 -1.080193 1.449626 -0.621392 -1.520986 0.753946 -0.651333 9.048875 -3.975658 -0.469774 -12.238386 2.922133 0.323920 26.813621 0.702400 0.491000 10.691400 9.209027 5.479049 0.407497 -98.872175 -10.706328 37.358940 7.582157 -16.876728 -1.145630 -0.116110 -0.700762 -3.391896 24.806596 -4.475802 -1.724200 -7.125000 0.000000 0.000000 -1.254600 25.891900 0.580900 -8.417840 -4.565230 0.051301 95.990887 10.648432 19.464695 -9.622847 21.117509 -2.036975 0.717280 0.883370 32.069475 -21.252650 -23.582453 9.323500 7.125000 0.000000 0.000000 8.856700 -56.123100 -2.429800 
0.481959 17.809988 -13.976215 -2.197035 -0.910076 6.707479 -1.505762 0.143924 0.982300 -14.870395 4.554586 -13.953740 -0.538954 5.387802 14.920753 0.115662 1.136584 -0.216856 0.200600 -2.883900 -7.955600 -0.584108 -0.443238 -0.106095 20.048756 0.497849 -11.641535 -0.122490 -6.210865 17.655107 -0.295141 0.037637 -4.662708 -0.180900 -2.739600 7.554500 1.923917 -0.445522 -1.070404 1.449631 -0.620347 -1.522649 0.754086 -0.651294 9.039399 -3.947899 -0.466258 -12.246195 2.902739 0.330102 26.816041 0.688500 0.495000 10.696400 9.211461 5.480136 0.407428 -98.932484 -10.686623 37.420717 7.590078 -16.887608 -1.148073 -0.115648 -0.700569 -3.416136 24.785182 -4.477201 -1.723400 -7.125000 0.000000 0.000000 -1.271000 25.890600 0.588600 -8.416970 -4.564676 0.050405 96.000430 10.638765 19.503445 -9.626911 21.122964 -2.038207 0.717151 0.883424 32.061743 -21.252336 -23.582703 9.323400 7.125000 0.000000 0.000000 8.857000 -56.123200 -2.430000 
0.480641 17.809583 -13.977331 -2.202617 -0.897313 6.699412 -1.505152 0.144487 0.982420 -14.858217 4.540327 -13.948658 -0.538313 5.390132 14.927286 0.113709 1.146590 -0.226298 0.201200 -2.888200 -7.967600 -0.584424 -0.443313 -0.106013 20.059588 0.474002 -11.650391 -0.124105 -6.214779 17.666667 -0.297912 0.054435 -4.663928 -0.180500 -2.736300 7.545400 1.917971 -0.444041 -1.063040 1.449343 -0.617559 -1.523658 0.753828 -0.650414 9.033210 -3.919428 -0.464331 -12.256129 2.883248 0.333983 26.822009 0.674400 0.498100 10.703200 9.213757 5.481330 0.407299 -98.990012 -10.673057 37.494225 7.595853 -16.894742 -1.149742 -0.115361 -0.700413 -3.448203 24.771995 -4.485978 -1.726500 -7.125000 0.000000 0.000000 -1.281000 25.881100 0.593500 -8.415987 -4.564179 0.049613 96.008595 10.630260 19.538628 -9.630765 21.128568 -2.039488 0.717098 0.883262 32.059263 -21.252648 -23.575893 9.321200 7.125000 0.000000 0.000000 8.853600 -56.116300 -2.427500 
